<svg width="16" height="20" viewBox="0 0 16 20" fill="none" xmlns="http://www.w3.org/2000/svg">
<path id="Vector" d="M8 20C5.68333 19.4167 3.77067 18.0873 2.262 16.012C0.753334 13.9367 -0.000666225 11.6327 4.41696e-07 9.1V3L8 0L16 3V9.1C16 11.6333 15.2457 13.9377 13.737 16.013C12.2283 18.0883 10.316 19.4173 8 20ZM8 17.9C9.61667 17.4 10.9667 16.4123 12.05 14.937C13.1333 13.4617 13.7667 11.816 13.95 10H8V2.125L2 4.375V9.55C2 9.66667 2.01667 9.81667 2.05 10H8V17.9Z" fill="white" fill-opacity="0.9"/>
</svg>
