<svg width="14" height="20" viewBox="0 0 14 20" fill="none" xmlns="http://www.w3.org/2000/svg">
<g id="Group">
<g id="Group_2">
<g id="Group_3">
<path id="Vector" d="M12.4211 0H1.30526C0.589474 0 0 0.589474 0 1.30526V14.8C0 15.5158 0.589474 16.1053 1.30526 16.1053H2.08421C2.21053 13.5789 4.31579 11.5579 6.86316 11.5579C9.43158 11.5579 11.5368 13.5789 11.6421 16.1053H12.4211C13.1368 16.1053 13.7263 15.5158 13.7263 14.8V1.30526C13.7263 0.589474 13.1368 0 12.4211 0ZM10.6737 9.47368H3.05263C2.73684 9.47368 2.48421 9.22105 2.48421 8.90526C2.48421 8.58947 2.73684 8.33684 3.05263 8.33684H10.6947C11.0105 8.33684 11.2632 8.58947 11.2632 8.90526C11.2421 9.22105 10.9895 9.47368 10.6737 9.47368ZM10.6737 6.63158H3.05263C2.73684 6.63158 2.48421 6.37895 2.48421 6.06316C2.48421 5.74737 2.73684 5.49474 3.05263 5.49474H10.6947C11.0105 5.49474 11.2632 5.74737 11.2632 6.06316C11.2421 6.4 10.9895 6.63158 10.6737 6.63158ZM10.6737 3.81053H3.05263C2.73684 3.81053 2.48421 3.55789 2.48421 3.24211C2.48421 2.92632 2.73684 2.67368 3.05263 2.67368H10.6947C11.0105 2.67368 11.2632 2.92632 11.2632 3.24211C11.2421 3.55789 10.9895 3.81053 10.6737 3.81053Z" fill="white"/>
<path id="Vector_2" d="M6.86335 12.6736C4.8423 12.6736 3.2002 14.3157 3.2002 16.3367C3.2002 18.3578 4.8423 19.9999 6.86335 19.9999C8.88441 19.9999 10.5265 18.3578 10.5265 16.3367C10.5265 14.3157 8.88441 12.6736 6.86335 12.6736ZM8.52651 15.9788L6.75809 17.7473C6.65283 17.8525 6.50546 17.9157 6.35809 17.9157C6.21072 17.9157 6.06335 17.8525 5.95809 17.7473L5.07388 16.8631C4.8423 16.6315 4.8423 16.2736 5.07388 16.0631C5.30546 15.8315 5.66335 15.8315 5.87388 16.0631L6.35809 16.5473L7.72651 15.1788C7.95809 14.9473 8.31599 14.9473 8.52651 15.1788C8.75809 15.3894 8.75809 15.7473 8.52651 15.9788Z" fill="white"/>
</g>
</g>
</g>
</svg>
