<svg width="19" height="20" viewBox="0 0 19 20" fill="none" xmlns="http://www.w3.org/2000/svg">
<g id="Group 207">
<path id="Vector" d="M18.3317 16.2125L18.1226 16.028C17.5292 15.4993 17.0098 14.893 16.5785 14.2255C16.1074 13.3044 15.8251 12.2984 15.7481 11.2666V8.22774C15.7521 6.60718 15.1643 5.0409 14.095 3.82319C13.0256 2.60549 11.5485 1.82017 9.94096 1.61479V0.821236C9.94096 0.603431 9.85444 0.394546 9.70043 0.240535C9.54641 0.0865229 9.33753 0 9.11972 0C8.90192 0 8.69303 0.0865229 8.53902 0.240535C8.38501 0.394546 8.29849 0.603431 8.29849 0.821236V1.62709C6.70539 1.84728 5.24605 2.63734 4.19078 3.85096C3.13552 5.06457 2.55582 6.6195 2.55906 8.22774V11.2666C2.48201 12.2984 2.19967 13.3044 1.7286 14.2255C1.30468 14.8914 0.793674 15.4975 0.209154 16.028L0 16.2125V17.9472H18.3317V16.2125Z" fill="white" fill-opacity="0.9"/>
<path id="Vector_2" d="M7.54785 18.5933C7.6018 18.9832 7.79502 19.3404 8.09183 19.599C8.38864 19.8576 8.76899 20 9.16264 20C9.55629 20 9.93664 19.8576 10.2335 19.599C10.5303 19.3404 10.7235 18.9832 10.7774 18.5933H7.54785Z" fill="white" fill-opacity="0.9"/>
</g>
</svg>
